<svg width="142" height="114" viewBox="0 0 142 114" fill="none" xmlns="http://www.w3.org/2000/svg">
<path d="M71.631 55.4059H72.274C73.31 55.4059 74.1491 54.566 74.1491 53.5308V44.6889C74.1491 43.6536 73.31 42.8137 72.274 42.8137H26.5546C25.5193 42.8137 24.6794 43.6536 24.6794 44.6889V53.5308C24.6794 54.566 25.5186 55.4059 26.5546 55.4059H71.631Z" fill="#DDA2A5"/>
<path d="M72.1056 39.9633V4.04828C72.1056 2.47445 70.8299 1.198 69.2553 1.198H29.5742C28.0003 1.198 26.7239 2.47366 26.7239 4.04828V39.9633C26.7239 41.5371 27.9995 42.8136 29.5742 42.8136H69.2553C70.8291 42.8136 72.1056 41.5371 72.1056 39.9633Z" fill="white"/>
<path d="M141.911 76.9131C141.042 71.0448 137.06 55.6158 119.18 54.8921C118.382 54.8597 117.677 54.3575 117.402 53.607L104.615 18.645C104.487 18.2954 104.468 17.9411 104.531 17.6097L106.457 16.0106C107.575 16.0106 108.466 15.0774 108.416 13.9607L108.031 5.47068C107.984 4.42277 107.121 3.5979 106.072 3.5979H97.4196C96.7133 3.5979 96.0609 3.97831 95.7129 4.59281L91.1266 12.6953C90.9645 12.9816 90.8775 13.3042 90.872 13.6332L89.5536 73.4404C89.5377 74.512 88.6646 75.3733 87.593 75.3733H73.593C72.5095 75.3733 71.6317 74.4954 71.6317 73.4119V55.2077C71.6317 54.1242 70.7538 53.2463 69.6703 53.2463H37.0667C36.9576 53.2463 36.85 53.255 36.7424 53.2732C34.8357 53.6014 17.5267 57.2552 16.6219 81.9683C16.5816 83.0803 17.4705 84.0072 18.5833 84.0072H20.6656C20.6348 83.5042 20.6142 82.9988 20.6142 82.4879C20.6142 69.002 31.5472 58.0698 45.0323 58.0698C58.5183 58.0698 69.4504 69.002 69.4504 82.4879C69.4504 82.9988 69.4299 83.5042 69.3983 84.0072H89.6928C89.6619 83.5042 89.6414 82.9988 89.6414 82.4879C89.6414 69.002 100.574 58.0698 114.059 58.0698C126.416 58.0698 136.622 67.2503 138.246 79.1608C138.281 79.1592 138.315 79.1505 138.352 79.1505H139.969C141.163 79.1513 142.086 78.0939 141.911 76.9131Z" fill="white"/>
<path d="M45.0324 58.0706C31.5464 58.0706 20.6143 69.0027 20.6143 82.4887C20.6143 82.9996 20.6348 83.5049 20.6657 84.0079H69.3991C69.4299 83.5049 69.4513 82.9996 69.4513 82.4887C69.4505 69.0035 58.5183 58.0706 45.0324 58.0706Z" fill="white"/>
<path opacity="0.24" d="M45.0324 58.0706C31.5464 58.0706 20.6143 69.0027 20.6143 82.4887C20.6143 82.9996 20.6348 83.5049 20.6657 84.0079H69.3991C69.4299 83.5049 69.4513 82.9996 69.4513 82.4887C69.4505 69.0035 58.5183 58.0706 45.0324 58.0706Z" fill="white"/>
<path d="M114.06 58.0706C100.574 58.0706 89.6416 69.0027 89.6416 82.4887C89.6416 82.9996 89.6622 83.5049 89.693 84.0079H134.429C135.513 84.0079 136.391 83.1301 136.391 82.0466V81.1118C136.391 80.0646 137.213 79.2168 138.246 79.1615C136.623 67.251 126.416 58.0706 114.06 58.0706Z" fill="white"/>
<path opacity="0.24" d="M114.06 58.0706C100.574 58.0706 89.6416 69.0027 89.6416 82.4887C89.6416 82.9996 89.6622 83.5049 89.693 84.0079H134.429C135.513 84.0079 136.391 83.1301 136.391 82.0466V81.1118C136.391 80.0646 137.213 79.2168 138.246 79.1615C136.623 67.251 126.416 58.0706 114.06 58.0706Z" fill="white"/>
<path d="M46.1972 60.2653C46.0264 60.2281 45.8492 60.2075 45.6673 60.2075H44.6756H28.3149C26.9356 60.2075 25.8173 61.3258 25.8173 62.7051C25.8173 63.8961 26.6525 64.891 27.7684 65.1402H30.1687C30.3332 65.1402 30.4937 65.1568 30.6495 65.1876C30.6716 65.1916 30.693 65.1971 30.7144 65.2019C31.8303 65.451 32.6654 66.4459 32.6654 67.6369C32.6654 68.7102 31.9869 69.6228 31.0363 69.9763C30.7658 70.0768 30.4739 70.1345 30.1687 70.1345H26.1495H15.3525C14.4019 70.4872 13.7225 71.3999 13.7225 72.4739C13.7225 73.5337 14.3837 74.4368 15.3153 74.7999H22.5225C22.8421 74.7999 23.1465 74.8623 23.4273 74.9715H23.7191C23.7057 75.0094 23.6938 75.0482 23.6804 75.0862C24.476 75.5037 25.0201 76.3365 25.0201 77.2974C25.0201 78.6538 23.9374 79.7555 22.589 79.791C22.5882 79.7958 22.5882 79.8005 22.5874 79.8053C22.5486 79.8037 22.5099 79.7997 22.4703 79.7997H6.98195C5.60267 79.7997 4.48438 80.918 4.48438 82.2973C4.48438 83.6766 5.60267 84.7949 6.98195 84.7949H17.5488H22.4703C22.4956 84.7949 22.521 84.7917 22.5463 84.7909C22.5463 84.7925 22.5471 84.7933 22.5471 84.7949H25.1008C26.48 84.7949 27.5983 85.9132 27.5983 87.2924C27.5983 88.6717 26.48 89.79 25.1008 89.79H23.6661H22.4474C21.0681 89.79 19.9506 90.9083 19.9506 92.2876C19.9506 93.6668 21.0689 94.7851 22.4474 94.7851H26.1495C26.1503 94.7867 26.1518 94.7883 26.1526 94.7899H33.673C35.0523 94.7899 36.1706 95.9082 36.1706 97.2874C36.1706 98.6359 35.1013 99.7312 33.7647 99.7803H30.7112H28.4446C28.4137 99.7803 28.3837 99.7842 28.3528 99.785C27.0163 99.8333 25.947 100.929 25.947 102.278C25.947 103.657 27.0653 104.775 28.4438 104.775H43.9322C44.1275 104.775 44.3157 104.751 44.4976 104.709C44.557 104.71 44.6147 104.714 44.674 104.714C56.9625 104.714 66.9243 94.7519 66.9243 82.4634C66.9259 70.681 57.7756 61.0474 46.1972 60.2653Z" fill="white"/>
<path d="M18.2606 92.1174C18.2606 90.7382 17.1423 89.6199 15.7631 89.6199H4.24879C2.86951 89.6199 1.75122 90.7382 1.75122 92.1174C1.75122 93.4967 2.86951 94.615 4.24879 94.615H15.7631C17.1431 94.615 18.2606 93.4967 18.2606 92.1174Z" fill="white"/>
<path d="M21.4674 99.7764H17.2766C15.8973 99.7764 14.7791 100.895 14.7791 102.274C14.7791 103.653 15.8973 104.772 17.2766 104.772H21.4674C22.8467 104.772 23.965 103.653 23.965 102.274C23.965 100.895 22.8467 99.7764 21.4674 99.7764Z" fill="white"/>
<path d="M11.6729 65.1402H22.053C23.1492 64.876 23.9646 63.8922 23.9646 62.7146C23.9646 61.3353 22.8463 60.217 21.467 60.217H12.2573C10.878 60.217 9.75977 61.3353 9.75977 62.7146C9.76135 63.8922 10.5767 64.876 11.6729 65.1402Z" fill="white"/>
<path d="M6.13082 74.9707H8.99298C9.31249 74.9707 9.61619 74.9082 9.89695 74.7991C10.8286 74.4369 11.4898 73.5329 11.4898 72.4732C11.4898 71.0939 10.3715 69.9756 8.9922 69.9756H2.49757C1.11829 69.9756 0 71.0939 0 72.4732C0 73.8524 1.11829 74.9707 2.49757 74.9707H6.13082Z" fill="white"/>
<path d="M60.7858 98.2446C69.4873 89.543 69.4873 75.435 60.7858 66.7334C52.0842 58.0319 37.9762 58.0319 29.2746 66.7334C20.5731 75.435 20.5731 89.543 29.2746 98.2446C37.9762 106.946 52.0842 106.946 60.7858 98.2446Z" fill="white"/>
<path d="M45.0324 92.4191C50.5162 92.4191 54.9618 87.9735 54.9618 82.4897C54.9618 77.0058 50.5162 72.5603 45.0324 72.5603C39.5486 72.5603 35.103 77.0058 35.103 82.4897C35.103 87.9735 39.5486 92.4191 45.0324 92.4191Z" fill="#A3090F" stroke="white" stroke-width="1.5625" stroke-miterlimit="10" stroke-linecap="round" stroke-linejoin="round"/>
<path d="M135.745 87.6768C138.608 75.708 131.226 63.685 119.257 60.8226C107.288 57.9602 95.2649 65.3424 92.4025 77.3112C89.5401 89.28 96.9224 101.303 108.891 104.165C120.86 107.028 132.883 99.6456 135.745 87.6768Z" fill="white"/>
<path d="M114.06 92.4188C119.543 92.4188 123.989 87.9733 123.989 82.4894C123.989 77.0056 119.543 72.5601 114.06 72.5601C108.576 72.5601 104.13 77.0056 104.13 82.4894C104.13 87.9733 108.576 92.4188 114.06 92.4188Z" fill="#A3090F" stroke="#A3090F" stroke-width="1.5625" stroke-miterlimit="10" stroke-linecap="round" stroke-linejoin="round"/>
<path d="M112.242 17.9457C107.497 17.9457 103.65 14.0989 103.65 9.35367C103.65 4.60846 107.497 0.762451 112.242 0.762451" fill="white"/>
<path d="M111.246 2.3956C114.461 3.07812 116.881 5.93869 116.881 9.35446C116.881 12.7702 114.462 15.6308 111.246 16.3133V2.3956ZM109.767 0.762451V17.9457C114.513 17.9457 118.359 14.0989 118.359 9.35367C118.359 4.60846 114.513 0.762451 109.767 0.762451Z" fill="white"/>
<path d="M113.186 0H108.508V19.0679H113.186V0Z" fill="white"/>
<path d="M97.7139 11.5127H81.2781C80.1851 11.5127 79.2993 10.6269 79.2993 9.53393C79.2993 8.44095 80.1851 7.55518 81.2781 7.55518H97.7139C98.8069 7.55518 99.6927 8.44095 99.6927 9.53393C99.6927 10.6269 98.8069 11.5127 97.7139 11.5127Z" fill="white"/>
<path d="M88.0011 12.4127H81.6377C80.0481 12.4127 78.7598 11.1244 78.7598 9.53472C78.7598 7.94507 80.0489 6.65674 81.6377 6.65674H88.0011C89.5907 6.65674 90.8791 7.94507 90.8791 9.53472C90.8791 11.1236 89.5907 12.4127 88.0011 12.4127Z" fill="white"/>
<path d="M57.4426 11.3435H46.7398L38.7812 24.7052L48.2321 22.1602L41.1214 36.6142L60.2328 16.863H50.1294L57.4426 11.3435Z" stroke="#A3090F" stroke-width="1.5625" stroke-miterlimit="10" stroke-linecap="round" stroke-linejoin="round"/>
</svg>
