<svg width="16" height="16" viewBox="0 0 16 16" fill="none" xmlns="http://www.w3.org/2000/svg">
<g clip-path="url(#clip0_6208_4153)">
<path d="M16 5H0V8V11H16V5Z" fill="#F0F5F9"/>
<path d="M16 0H0V5H16V0Z" fill="#EC2D30"/>
<path d="M16 11H0V16H16V11Z" fill="black"/>
<path d="M8.70898 6.98673L8.76437 9.11585L8.88621 9.30058L8.81606 6.85425L8.70898 6.98673Z" fill="#F28623"/>
<path d="M8.63635 8.92183L8.70896 9.05618L8.65727 7.05396L8.5625 7.16032L8.63635 8.92183Z" fill="#F28623"/>
<path d="M7.13848 6.77773L7.0511 6.89715C7.04856 6.85457 7.05257 6.81168 7.06282 6.77185C7.07307 6.73202 7.08928 6.69635 7.11018 6.66763C7.1951 6.5762 7.30217 6.60232 7.42771 6.74041C7.51108 6.82758 7.60954 6.8756 7.71079 6.87849C7.69971 6.90462 7.6911 6.91954 7.6911 6.92141C7.6896 6.92495 7.68873 6.92902 7.68858 6.93322C7.68843 6.93743 7.689 6.94162 7.69024 6.94538C7.69148 6.94915 7.69335 6.95236 7.69566 6.9547C7.69797 6.95704 7.70064 6.95843 7.70341 6.95873C7.74666 6.9482 7.78834 6.92609 7.82648 6.89342V6.98485C7.82619 6.98901 7.82674 6.9932 7.82806 6.99687C7.82938 7.00053 7.83141 7.0035 7.83387 7.00538C7.83665 7.00695 7.8397 7.00695 7.84248 7.00538H7.84987C7.88516 6.97388 7.91852 6.93766 7.94956 6.89715L7.9951 6.97739C7.99867 6.97939 8.0026 6.97939 8.00618 6.97739C8.00789 6.9787 8.00979 6.97939 8.01171 6.97939C8.01364 6.97939 8.01553 6.9787 8.01725 6.97739L8.06771 6.90835C8.10201 6.95383 8.14531 6.98074 8.19079 6.98485C8.19477 6.98699 8.19912 6.98699 8.2031 6.98485C8.20391 6.9819 8.20433 6.97873 8.20433 6.97552C8.20433 6.97232 8.20391 6.96915 8.2031 6.96619V6.93074C8.23464 6.9446 8.26767 6.94904 8.30033 6.9438C8.30332 6.94368 8.30621 6.94219 8.30863 6.93953C8.31105 6.93686 8.31287 6.93315 8.31387 6.92887C8.3153 6.92554 8.31606 6.92165 8.31606 6.91768C8.31606 6.9137 8.3153 6.90981 8.31387 6.90648C8.30934 6.89759 8.30523 6.88824 8.30156 6.87849C8.37844 6.87065 8.45343 6.83889 8.52187 6.78519C8.58833 6.72361 8.74587 6.57993 8.85048 6.63031C8.86859 6.63842 8.88522 6.65274 8.89909 6.67215C8.91296 6.69157 8.9237 6.71556 8.93048 6.74227C8.94506 6.79205 8.95099 6.84665 8.94771 6.90088L8.86156 6.77773L8.91571 9.32482L9.04987 9.51142L8.99818 6.96246L8.97725 6.93447C8.98662 6.86057 8.98015 6.78407 8.95879 6.71615C8.95022 6.68418 8.93704 6.65552 8.92021 6.63227C8.90339 6.60903 8.88335 6.59178 8.86156 6.5818C8.73848 6.52582 8.57725 6.67696 8.5071 6.74041C8.43758 6.79447 8.36116 6.82502 8.2831 6.82998C8.22222 6.63526 8.19632 6.41962 8.20802 6.20486C8.20802 6.15821 8.20802 6.11903 8.20802 6.08917C8.20862 6.07986 8.20862 6.07049 8.20802 6.06118C8.19202 5.92869 8.11694 5.88764 8.03079 5.84286C8.01625 5.83314 8.00053 5.82813 7.98464 5.82812C7.96874 5.82813 7.95303 5.83314 7.93848 5.84286C7.92824 5.85176 7.91974 5.86464 7.91387 5.88018C7.87354 5.86565 7.83224 5.85813 7.79079 5.85779H7.78217C7.77099 5.86079 7.76054 5.86825 7.75189 5.8794C7.74324 5.89055 7.7367 5.90499 7.73294 5.92123C7.72226 5.96922 7.71848 6.02012 7.72187 6.07051C7.72207 6.07451 7.72298 6.07834 7.72449 6.08163C7.72601 6.08491 7.72808 6.08751 7.73048 6.08917C7.73276 6.09097 7.7353 6.09191 7.73787 6.09191C7.74044 6.09191 7.74297 6.09097 7.74525 6.08917L7.77725 6.05931C7.79371 6.06409 7.80924 6.07446 7.82267 6.08965C7.8361 6.10485 7.84708 6.12446 7.85479 6.14702L7.86464 6.17314C7.90279 6.3952 7.79571 6.68816 7.73417 6.83371C7.63224 6.8375 7.53218 6.79173 7.44864 6.70309C7.27756 6.51649 7.16187 6.5594 7.09541 6.63031C7.06759 6.66862 7.0465 6.71683 7.03404 6.77058C7.02158 6.82433 7.01814 6.88193 7.02402 6.9382L7.00433 6.96619L6.95264 9.51516L7.08679 9.32856L7.13848 6.77773ZM7.89171 6.15635C7.88857 6.14595 7.88487 6.13596 7.88064 6.12649C7.9042 6.1193 7.92846 6.1193 7.95202 6.12649C7.95202 6.12649 7.87079 5.98654 7.81171 5.97348C7.80271 5.97048 7.7933 5.97194 7.78488 5.97765C7.77646 5.98336 7.76947 5.99302 7.76494 6.0052L7.75141 6.01826C7.75107 5.98836 7.7544 5.95861 7.76125 5.93056C7.76102 5.92621 7.76102 5.92185 7.76125 5.9175C7.78624 5.9146 7.81134 5.9146 7.83633 5.9175C7.87325 5.9175 7.98402 6.07424 7.98402 6.07424C8.01464 6.02656 8.0559 5.99794 8.09971 5.994C8.11001 5.99246 8.12041 5.99433 8.13019 5.99949C8.13996 6.00464 8.14888 6.01296 8.15633 6.02386C8.16161 6.0376 8.16496 6.05285 8.16617 6.06865C8.16698 6.07606 8.16698 6.08362 8.16617 6.09104C8.16617 6.11903 8.16617 6.15821 8.16617 6.203C8.15359 6.43005 8.18255 6.65798 8.24987 6.8617C8.24987 6.8617 8.24987 6.8617 8.24987 6.87103C8.25319 6.87807 8.25607 6.88557 8.25848 6.89342C8.23761 6.89511 8.21671 6.89067 8.19694 6.88036C8.14568 6.7354 8.12023 6.57268 8.1231 6.40826C8.1231 6.40232 8.12154 6.39662 8.11877 6.39242C8.116 6.38823 8.11225 6.38587 8.10833 6.38587C8.10441 6.38587 8.10066 6.38823 8.09789 6.39242C8.09512 6.39662 8.09356 6.40232 8.09356 6.40826C8.09256 6.57956 8.12143 6.74821 8.17725 6.89715V6.9382C8.15858 6.93712 8.14027 6.93007 8.12352 6.91753C8.10677 6.90499 8.09194 6.88724 8.08002 6.86543C8.06314 6.7151 8.05819 6.56224 8.06525 6.41012C8.06542 6.40703 8.06517 6.40392 8.0645 6.40098C8.06384 6.39804 8.06278 6.39535 8.06139 6.39307C8.06 6.39079 8.05831 6.38897 8.05643 6.38773C8.05456 6.38649 8.05253 6.38585 8.05048 6.38587C8.04851 6.38531 8.04648 6.38543 8.04454 6.38621C8.04261 6.38699 8.04081 6.38842 8.03927 6.39038C8.03774 6.39234 8.03652 6.3948 8.03569 6.39757C8.03486 6.40034 8.03445 6.40335 8.03448 6.40639C8.0268 6.56098 8.03176 6.71642 8.04925 6.86916L8.00494 6.93074L7.96679 6.86356C7.99713 6.71384 8.01531 6.55906 8.02094 6.40266C8.02174 6.39846 8.02171 6.394 8.02086 6.38983C8.02 6.38566 8.01836 6.38196 8.01614 6.37918C8.01392 6.37641 8.01121 6.37468 8.00834 6.37421C8.00548 6.37374 8.00259 6.37455 8.00002 6.37654C7.99585 6.37647 7.9918 6.37871 7.98863 6.38282C7.98546 6.38694 7.98339 6.39266 7.98279 6.39893C7.97989 6.55136 7.96206 6.70229 7.92987 6.84677C7.92987 6.84677 7.88433 6.90462 7.84864 6.94194V6.86543C7.91018 6.79452 7.94587 6.47543 7.95325 6.41012C7.9536 6.40704 7.95352 6.40388 7.95301 6.40084C7.95251 6.39781 7.95158 6.39497 7.95031 6.3925C7.94903 6.39004 7.94743 6.38801 7.94561 6.38655C7.94378 6.38508 7.94177 6.38422 7.93971 6.384C7.93777 6.38347 7.93578 6.38353 7.93385 6.38418C7.93193 6.38484 7.93011 6.38607 7.9285 6.38781C7.92689 6.38955 7.92553 6.39176 7.9245 6.39431C7.92347 6.39686 7.92278 6.3997 7.92248 6.40266C7.90648 6.55381 7.8671 6.80199 7.82648 6.83184C7.79705 6.85593 7.76663 6.87712 7.73541 6.89529C7.80187 6.7684 7.94094 6.42319 7.89417 6.15635H7.89171Z" fill="#F28623"/>
<path d="M7.11377 9.30058L7.23562 9.11585L7.291 6.98673L7.18392 6.85425L7.11377 9.30058Z" fill="#F28623"/>
<path d="M7.43748 7.16032L7.34271 7.05396L7.29102 9.05618L7.36363 8.92183L7.43748 7.16032Z" fill="#F28623"/>
<path d="M7.84997 8.26305V7.2666C7.77837 7.30564 7.70323 7.32767 7.6272 7.33191C7.6339 7.67041 7.71198 7.99675 7.84997 8.26305ZM8.15889 7.2666V8.27984C8.2901 8.00189 8.36844 7.67463 8.38535 7.33378C8.30842 7.32459 8.23243 7.30205 8.15889 7.2666Z" fill="#F28623"/>
<path d="M8.92787 9.67949H8.89464C8.88628 9.65604 8.8747 9.63559 8.86069 9.61949C8.84668 9.6034 8.83055 9.59204 8.81341 9.58619V9.55073C8.81837 9.52893 8.82007 9.50572 8.81837 9.4828C8.81666 9.45988 8.8116 9.43782 8.80356 9.41825C8.78857 9.39052 8.76982 9.368 8.74858 9.35223C8.72735 9.33645 8.70412 9.32778 8.68048 9.32681C8.65466 9.32864 8.62906 9.3349 8.60417 9.34547L8.49217 8.74649L8.55864 8.84165L8.5291 7.1865L8.46879 7.22383C8.46707 7.22251 8.46517 7.22183 8.46325 7.22183C8.46133 7.22183 8.45943 7.22251 8.45771 7.22383C8.29785 7.2376 8.13995 7.16486 8.01217 7.01856C8.00936 7.01524 8.0059 7.01343 8.00233 7.01343C7.99876 7.01343 7.99529 7.01524 7.99248 7.01856C7.86807 7.16439 7.71234 7.23489 7.55556 7.21636C7.55141 7.2168 7.5475 7.21949 7.54456 7.22395C7.54162 7.22841 7.53985 7.23433 7.53956 7.24062L7.46571 7.19583L7.43617 8.85098L7.51248 8.74275L7.47925 8.91256L7.39187 9.36413L7.35248 9.34174C7.34432 9.33318 7.33498 9.32755 7.32517 9.32529C7.31536 9.32302 7.30534 9.32418 7.29587 9.32868C7.28473 9.33526 7.27525 9.34702 7.26879 9.36227C7.25682 9.36309 7.24512 9.36786 7.23449 9.37624C7.22386 9.38462 7.21457 9.3964 7.20725 9.41078C7.18803 9.45886 7.18144 9.51615 7.18879 9.57126C7.16997 9.57614 7.15266 9.58999 7.13939 9.6108C7.12611 9.6316 7.11755 9.65827 7.11494 9.68695L7.07802 9.70561C7.07529 9.70732 7.07292 9.71014 7.07119 9.71377C7.06945 9.71739 7.06841 9.72167 7.06817 9.72614C7.0679 9.73076 7.06858 9.7354 7.07013 9.73942C7.07167 9.74343 7.074 9.74661 7.07679 9.74853L7.10017 9.76532C7.09964 9.79637 7.10521 9.82697 7.11617 9.85321C7.12712 9.87946 7.14298 9.90018 7.16171 9.91274C7.14694 10.0154 7.19494 10.0396 7.22325 10.0546L7.2454 10.0676C7.48246 10.1259 7.72171 10.1614 7.96171 10.174C7.99741 10.174 8.0331 10.174 8.06879 10.174C8.24127 10.1697 8.41346 10.1503 8.58448 10.1161L8.69033 10.0975C8.77525 10.0825 8.82941 10.0471 8.8491 9.98738C8.856 9.95972 8.856 9.9292 8.8491 9.90154C8.86448 9.88828 8.87697 9.8685 8.88506 9.84464C8.89314 9.82078 8.89647 9.79387 8.89464 9.76719L8.93033 9.71494C8.93213 9.71114 8.9331 9.70657 8.9331 9.70188C8.9331 9.69719 8.93213 9.69263 8.93033 9.68882C8.92998 9.68547 8.92914 9.68227 8.92787 9.67949ZM8.58941 9.40332H8.56602H8.58817H8.58941ZM7.70817 8.17922C7.7076 8.18129 7.7073 8.18351 7.7073 8.18575C7.7073 8.18799 7.7076 8.19021 7.70817 8.19228L7.71925 8.39194L7.62694 8.52816L7.60233 8.47032L7.67617 8.08592C7.68479 8.11018 7.69587 8.1419 7.70817 8.17176V8.17922ZM8.33587 8.09711L8.40848 8.47032L8.38264 8.52816L8.29156 8.39194L8.30264 8.18668C8.31371 8.15496 8.32602 8.12324 8.33587 8.08965V8.09711ZM7.83125 9.21672L7.79556 9.05064H7.80294L7.88048 8.92002L7.83125 9.21672ZM8.15617 9.09356L8.1291 8.91629L8.20417 9.04318H8.21156L8.17587 9.20925L8.15617 9.09356ZM8.1894 9.30629L8.23125 9.11969L8.29648 9.2615C8.29813 9.26509 8.30034 9.268 8.30292 9.26996C8.3055 9.27191 8.30837 9.27286 8.31125 9.2727C8.31394 9.27187 8.31646 9.27009 8.3186 9.26749C8.32074 9.2649 8.32244 9.26156 8.32356 9.25777L8.36541 9.10289L8.43064 9.24657C8.43425 9.24818 8.4381 9.24818 8.44171 9.24657L8.40233 9.40892L8.35679 9.31562C8.35242 9.31319 8.34762 9.31319 8.34325 9.31562C8.34046 9.31597 8.33778 9.31734 8.33542 9.31961C8.33306 9.32189 8.3311 9.325 8.32971 9.32868L8.29279 9.44437C8.26738 9.44697 8.24189 9.44697 8.21648 9.44437L8.1894 9.30629ZM8.36171 9.42198L8.32356 9.43131L8.34079 9.37906L8.36171 9.42198ZM8.43802 9.39959L8.4614 9.30442L8.49833 9.38093L8.43802 9.39959ZM8.43802 9.1738L8.37402 9.03198C8.37253 9.02825 8.3703 9.02533 8.36764 9.02366C8.36499 9.02198 8.36205 9.02163 8.35925 9.02265C8.35637 9.02257 8.35356 9.02401 8.35131 9.02674C8.34907 9.02947 8.34752 9.0333 8.34694 9.03758L8.3051 9.19246L8.2374 9.04691C8.23456 9.04606 8.23163 9.04606 8.22879 9.04691L8.26817 8.8118L8.3334 8.93122C8.33554 8.93364 8.33813 8.93495 8.34079 8.93495C8.34345 8.93495 8.34604 8.93364 8.34817 8.93122C8.35072 8.93043 8.35309 8.92864 8.35504 8.92601C8.35698 8.92339 8.35844 8.92004 8.35925 8.91629L8.39002 8.76514L8.49094 8.92562L8.43802 9.1738ZM8.39494 8.69984C8.39266 8.69804 8.39013 8.6971 8.38756 8.6971C8.38499 8.6971 8.38245 8.69804 8.38017 8.69984C8.37767 8.70134 8.37539 8.7036 8.37349 8.70649C8.37158 8.70938 8.37009 8.71283 8.3691 8.71663L8.33956 8.86404L8.27433 8.74275C8.27208 8.74079 8.26954 8.73975 8.26694 8.73975C8.26435 8.73975 8.2618 8.74079 8.25956 8.74275C8.25726 8.74181 8.25485 8.74165 8.25251 8.7423C8.25017 8.74295 8.24795 8.74438 8.24602 8.74649L8.2054 8.98533L8.12294 8.83792L8.18694 8.57481L8.24602 8.68304C8.24797 8.68427 8.25006 8.68491 8.25217 8.68491C8.25429 8.68491 8.25638 8.68427 8.25833 8.68304C8.26106 8.68133 8.26342 8.67851 8.26516 8.67489C8.2669 8.67126 8.26794 8.66698 8.26817 8.66252L8.28048 8.43859L8.36787 8.56548C8.37105 8.56719 8.37453 8.56719 8.37771 8.56548C8.38127 8.56766 8.38524 8.56766 8.38879 8.56548L8.40971 8.51697L8.46879 8.82299L8.39494 8.69984ZM8.26202 8.34716L8.24602 8.3173C8.2534 8.30424 8.25956 8.28745 8.26694 8.27252L8.26202 8.34716ZM8.2251 8.35836L8.25833 8.40687L8.24602 8.6084L8.16356 8.45912C8.18579 8.42615 8.20675 8.39126 8.22633 8.35462L8.2251 8.35836ZM8.14264 8.49457L8.16479 8.53563L8.10694 8.77821L8.07617 8.57481C8.10079 8.54496 8.12294 8.51883 8.14387 8.49084L8.14264 8.49457ZM7.92848 8.55988L7.90017 8.74649V8.76514L7.83987 8.5151L7.8694 8.46285C7.89156 8.51324 7.91125 8.53936 7.92848 8.55988ZM7.75371 8.6084V8.40314L7.79433 8.34343C7.81247 8.37962 7.83221 8.41391 7.85341 8.44606L7.75371 8.6084ZM7.73894 8.34343V8.24453L7.76848 8.30797L7.73894 8.34343ZM7.58264 8.53003L7.60356 8.57854C7.6053 8.57973 7.60719 8.58034 7.6091 8.58034C7.61101 8.58034 7.61289 8.57973 7.61464 8.57854C7.61821 8.58054 7.62214 8.58054 7.62571 8.57854L7.7131 8.45166L7.72417 8.67558C7.72464 8.68019 7.72592 8.68452 7.72787 8.68813C7.72981 8.69174 7.73236 8.69449 7.73525 8.6961C7.7372 8.69734 7.73929 8.69797 7.74141 8.69797C7.74352 8.69797 7.74561 8.69734 7.74756 8.6961L7.80664 8.58788L7.87679 8.83792L7.79433 8.97787L7.75371 8.74649C7.75287 8.74225 7.75127 8.73845 7.7491 8.73549C7.74693 8.73253 7.74427 8.73052 7.74141 8.72969C7.73921 8.72752 7.73664 8.72637 7.73402 8.72637C7.7314 8.72637 7.72883 8.72752 7.72664 8.72969L7.6614 8.85098L7.63064 8.70543C7.63001 8.70134 7.62865 8.6976 7.62669 8.69463C7.62473 8.69166 7.62226 8.68958 7.61956 8.68864C7.61725 8.68698 7.61473 8.68612 7.61217 8.68612C7.60962 8.68612 7.6071 8.68698 7.60479 8.68864L7.52356 8.81739L7.58264 8.53003ZM7.60971 8.76701L7.64048 8.91816C7.6413 8.9219 7.64275 8.92526 7.6447 8.92788C7.64664 8.9305 7.64901 8.9323 7.65156 8.93309C7.65376 8.93525 7.65632 8.93641 7.65894 8.93641C7.66157 8.93641 7.66413 8.93525 7.66633 8.93309L7.73156 8.81366L7.77094 9.04878H7.76356L7.69587 9.19433L7.65402 9.03945C7.65325 9.03532 7.65165 9.03167 7.64945 9.02899C7.64724 9.02631 7.64454 9.02475 7.64171 9.02452C7.63914 9.02444 7.63659 9.02524 7.63425 9.02686C7.6319 9.02847 7.62983 9.03086 7.62817 9.03385L7.56417 9.17567L7.51002 8.92376L7.60971 8.76701ZM7.57033 9.43131L7.49279 9.40705L7.54079 9.31002L7.57033 9.43131ZM7.63064 9.44624L7.6614 9.38466L7.68479 9.45557L7.63064 9.44624ZM7.72048 9.46117L7.6774 9.32868C7.67622 9.32514 7.67447 9.3221 7.67232 9.31982C7.67018 9.31754 7.6677 9.3161 7.6651 9.31562C7.66073 9.31319 7.65593 9.31319 7.65156 9.31562L7.60233 9.41638L7.56048 9.24471C7.56369 9.24616 7.56712 9.24616 7.57033 9.24471L7.63679 9.10103L7.67864 9.25591C7.67955 9.2599 7.68119 9.26342 7.68337 9.26607C7.68554 9.26871 7.68817 9.27036 7.69094 9.27083C7.69364 9.27085 7.69629 9.26983 7.69866 9.26787C7.70103 9.26591 7.70303 9.26308 7.70448 9.25964L7.77094 9.11782L7.81279 9.30442L7.7894 9.45743C7.76803 9.45709 7.74667 9.45522 7.7254 9.45183L7.72048 9.46117ZM7.83371 9.38466L7.84848 9.43131L7.90879 9.35853L7.96541 8.85285L7.94817 9.38839L7.99371 9.46863L8.05156 9.38839L8.0331 8.82859L8.08971 9.38839L8.15125 9.45557C8.12305 9.45141 8.09468 9.46053 8.07002 9.48169C8.06329 9.48951 8.05747 9.49896 8.05279 9.50968C8.04234 9.5116 8.03226 9.51673 8.02316 9.52475C8.01406 9.53277 8.00614 9.54352 7.99987 9.55633C7.99112 9.54115 7.98034 9.52897 7.96824 9.5206C7.95614 9.51224 7.94301 9.50788 7.92971 9.50782C7.9211 9.47983 7.89648 9.46676 7.8214 9.47796L7.83371 9.38466ZM8.16725 9.40332V9.44251H8.14756L8.16725 9.40332ZM8.55125 9.366H8.52664L8.46387 9.23911C8.46029 9.23711 8.45636 9.23711 8.45279 9.23911L8.50448 9.00026L8.57341 9.35853L8.55125 9.366ZM8.35064 8.03554C8.39386 7.88489 8.42526 7.72707 8.44417 7.5653L8.4651 8.62146L8.35064 8.03554ZM7.99987 7.05402C8.12935 7.19172 8.28487 7.2618 8.44294 7.25368C8.44294 7.40483 8.39248 8.24826 8.00356 8.58414C7.86597 8.43185 7.75479 8.23125 7.67955 7.99953C7.60431 7.76781 7.56725 7.51188 7.57156 7.25368C7.72522 7.26369 7.87646 7.19318 7.99987 7.05402ZM7.5494 7.47574C7.56377 7.66373 7.59784 7.84704 7.65033 8.01874L7.5654 8.46099L7.52848 8.64759L7.5494 7.47574ZM7.49402 8.99093L7.54571 9.22978C7.5425 9.22833 7.53908 9.22833 7.53587 9.22978L7.46202 9.37719L7.42017 9.36227L7.49402 8.99093ZM8.87248 9.73733C8.8716 9.74026 8.87114 9.74344 8.87114 9.74666C8.87114 9.74988 8.8716 9.75307 8.87248 9.75599C8.87248 9.75599 8.87248 9.84556 8.83556 9.86049C8.83093 9.86263 8.82699 9.86728 8.82448 9.87355C8.82329 9.87701 8.82268 9.88085 8.82268 9.88475C8.82268 9.88865 8.82329 9.89249 8.82448 9.89594C8.82766 9.90616 8.82931 9.91731 8.82931 9.9286C8.82931 9.93989 8.82766 9.95104 8.82448 9.96125C8.81464 9.99298 8.78264 10.0322 8.6891 10.0471L8.58325 10.0658C8.37949 10.11 8.17363 10.1281 7.96787 10.1199C7.73138 10.1074 7.49553 10.075 7.2614 10.0228C7.25304 10.015 7.2439 10.0094 7.23433 10.006C7.20356 9.98924 7.18017 9.97618 7.19617 9.89968C7.19706 9.89675 7.19752 9.89357 7.19752 9.89035C7.19752 9.88713 7.19706 9.88394 7.19617 9.88102C7.19516 9.87819 7.19376 9.87572 7.19206 9.87379C7.19036 9.87186 7.1884 9.8705 7.18633 9.86982C7.16966 9.8621 7.15532 9.8457 7.14586 9.8235C7.1364 9.8013 7.13242 9.77475 7.13464 9.74853C7.13474 9.74416 7.13412 9.73982 7.13283 9.73591C7.13154 9.73199 7.12962 9.72863 7.12725 9.72614H7.1371C7.14012 9.72453 7.14271 9.72147 7.14449 9.71744C7.14626 9.7134 7.14712 9.70859 7.14694 9.70375C7.14757 9.67948 7.15429 9.65649 7.16573 9.63949C7.17717 9.62249 7.19247 9.61277 7.20848 9.61231C7.21041 9.61365 7.21251 9.61435 7.21464 9.61435C7.21676 9.61435 7.21886 9.61365 7.22079 9.61231C7.22198 9.60919 7.2226 9.60565 7.2226 9.60205C7.2226 9.59845 7.22198 9.59491 7.22079 9.59179C7.21258 9.54224 7.21652 9.48985 7.23187 9.44437C7.23746 9.43398 7.24465 9.42583 7.2528 9.42062C7.26095 9.41542 7.26982 9.41332 7.27864 9.41452C7.28189 9.41413 7.28501 9.41234 7.28763 9.40937C7.29024 9.4064 7.29225 9.40236 7.2934 9.39772C7.29464 9.3931 7.29648 9.38891 7.2988 9.38538C7.30113 9.38186 7.3039 9.37907 7.30694 9.37719C7.31775 9.37523 7.32867 9.3792 7.33771 9.38839C7.35227 9.39943 7.36752 9.40818 7.38325 9.41452C7.38237 9.41744 7.38191 9.42062 7.38191 9.42384C7.38191 9.42706 7.38237 9.43025 7.38325 9.43318C7.38325 9.43318 7.3894 9.43317 7.3931 9.44437L7.5974 9.49475L7.79556 9.54327C7.79908 9.54334 7.80251 9.5415 7.80522 9.53808C7.80793 9.53466 7.80974 9.52988 7.81033 9.52461V9.50595C7.88417 9.49289 7.89525 9.50595 7.89525 9.50595C7.8954 9.50956 7.89603 9.51308 7.89712 9.5163C7.89821 9.51952 7.89973 9.52235 7.90158 9.52463C7.90343 9.52691 7.90558 9.52859 7.90788 9.52955C7.91018 9.53051 7.91258 9.53073 7.91494 9.53021C7.92892 9.5284 7.94289 9.53389 7.95453 9.54577C7.96617 9.55765 7.97478 9.5752 7.97894 9.59552C7.98029 9.60058 7.98272 9.60481 7.98585 9.60752C7.98897 9.61023 7.99261 9.61126 7.99617 9.61045C7.99967 9.61002 8.00295 9.60772 8.00543 9.60396C8.00792 9.6002 8.00943 9.59522 8.00971 9.58992C8.00971 9.58992 8.00971 9.5358 8.05771 9.53021C8.06102 9.52986 8.06416 9.52782 8.06662 9.52444C8.06907 9.52105 8.07071 9.51651 8.07125 9.51155C8.07125 9.51155 8.0811 9.46303 8.17341 9.48356V9.52088C8.17399 9.52615 8.1758 9.53093 8.17851 9.53435C8.18122 9.53777 8.18465 9.53961 8.18817 9.53954L8.40602 9.49289L8.61525 9.43877C8.61924 9.43673 8.62269 9.43281 8.6251 9.42758C8.62598 9.42465 8.62644 9.42147 8.62644 9.41825C8.62644 9.41503 8.62598 9.41184 8.6251 9.40892V9.38466C8.6571 9.37346 8.68294 9.36786 8.69156 9.366C8.70928 9.36796 8.72656 9.37524 8.7424 9.38742C8.75825 9.39959 8.77234 9.41641 8.78387 9.43691C8.78915 9.45149 8.79191 9.46786 8.79191 9.48449C8.79191 9.50113 8.78915 9.51749 8.78387 9.53207V9.59925C8.78309 9.60189 8.78268 9.60475 8.78268 9.60765C8.78268 9.61054 8.78309 9.6134 8.78387 9.61604C8.78751 9.61739 8.7913 9.61739 8.79494 9.61604C8.8112 9.61819 8.82673 9.6272 8.83978 9.64204C8.85283 9.65688 8.86288 9.67696 8.86879 9.70001C8.87003 9.70375 8.87199 9.70682 8.8744 9.70882C8.87682 9.71082 8.87959 9.71165 8.88233 9.71121L8.87248 9.73733Z" fill="#F28623"/>
</g>
<defs>
<clipPath id="clip0_6208_4153">
<rect width="16" height="16" rx="8" fill="white"/>
</clipPath>
</defs>
</svg>
