<svg width="16" height="16" viewBox="0 0 16 16" fill="none" xmlns="http://www.w3.org/2000/svg">
<path d="M14.9951 7.99966C14.9951 8.18323 14.9881 8.36516 14.9742 8.54516L14.1373 9.09591L14.8001 9.64676C14.7086 10.0261 14.5861 10.3934 14.4356 10.7457L13.5189 11.2964L13.8428 11.8475C13.5817 12.2433 13.2814 12.6109 12.9475 12.945L11.5398 13.3185L11.5185 14.0471C10.485 14.6499 9.28295 14.9951 8.00029 14.9951C6.71738 14.9951 5.51516 14.6498 4.48148 14.047L4.51276 13.3649L3.06101 12.9535C2.72373 12.6172 2.42057 12.2466 2.1572 11.8475L2.44838 11.1693L1.56441 10.7458C1.41385 10.3934 1.29141 10.0261 1.19988 9.64679L1.76807 9.09595L1.02585 8.5452C1.01198 8.3652 1.00488 8.18326 1.00488 7.9997C1.00488 7.81423 1.0121 7.63045 1.02632 7.44863L8.00035 1.00488C9.28169 1.00488 10.4826 1.34948 11.5155 1.95107L11.648 2.6191L12.9371 3.04448C13.0509 3.15782 13.1607 3.27507 13.2665 3.39598C13.4563 3.61285 13.6328 3.84154 13.795 4.08079C14.0434 4.44735 14.2579 4.83876 14.4341 5.25048C14.5039 5.41373 14.5678 5.58016 14.6253 5.74954C14.6869 5.93107 14.7413 6.11598 14.7881 6.30385L14.261 6.90045L14.9739 7.4512C14.988 7.63213 14.9951 7.81507 14.9951 7.99966Z" fill="#F42525"/>
<path d="M14.4335 5.25057H7.99904C7.17154 4.93885 7.17154 4.5715 7.99904 4.14907H13.8398C14.0699 4.49604 14.269 4.86404 14.4335 5.25057ZM12.9455 3.05316H7.99904C7.33791 2.87875 7.33791 2.51138 7.99904 1.95166H11.515C12.0388 2.25597 12.5194 2.62704 12.9455 3.05316ZM14.9741 7.45107H7.99904C7.33791 6.79735 7.33791 6.42997 7.99904 6.3496H14.7984C14.8856 6.70641 14.9444 7.07441 14.9741 7.45107ZM14.9741 8.54513C14.945 8.92175 14.8863 9.28975 14.7997 9.6466H1.20029C1.11369 9.28975 1.05494 8.92175 1.02588 8.54513H14.9741ZM14.4354 10.7456C14.2703 11.1315 14.0718 11.5001 13.8423 11.8471H2.15766C1.92822 11.5001 1.72969 11.1315 1.56457 10.7456H14.4354ZM12.9474 12.9449C12.5219 13.371 12.0419 13.7421 11.5181 14.0464H4.48185C3.958 13.7421 3.47807 13.371 3.05257 12.9449H12.9474Z" fill="white"/>
<path d="M7.99917 1.00488V7.44866H1.02661C1.07352 6.84641 1.19674 6.26554 1.38658 5.71573L1.56586 5.45113L1.58961 5.19632C2.35261 3.45413 3.80514 2.0826 5.60205 1.42682L5.83195 1.41435L5.9587 1.30748C6.60427 1.11085 7.28936 1.00501 7.99917 1.00488Z" fill="#2E4593"/>
<path d="M6.34713 2.12765L6.34454 2.12902L6.25476 2.38727L6.46951 2.22521L6.47017 2.22383L6.47085 2.22521L6.68688 2.38727L6.59645 2.12902L6.59382 2.12765H6.59445L6.81838 1.97612H6.5476H6.54695L6.46429 1.71655L6.39079 1.97612H6.12329L6.34588 2.12765H6.34713Z" fill="white"/>
<path d="M6.34713 3.47302L6.34454 3.4743L6.25476 3.73127L6.46951 3.57048L6.47017 3.56917L6.47085 3.57048L6.68688 3.73127L6.59645 3.4743L6.59382 3.47302H6.59445L6.81838 3.32011H6.5476L6.54695 3.32148V3.32011L6.46429 3.06055L6.39079 3.32011H6.12329L6.34588 3.47302H6.34713Z" fill="white"/>
<path d="M6.34713 4.8171L6.34454 4.81976L6.25476 5.07663L6.46951 4.9146L6.47017 4.91326L6.47085 4.9146L6.68688 5.07663L6.59645 4.81976L6.59382 4.8171H6.59445L6.81838 4.66554H6.5476H6.54695L6.46429 4.40601L6.39079 4.66554H6.12329L6.34588 4.8171H6.34713Z" fill="white"/>
<path d="M6.59382 6.16237H6.59445L6.81838 6.00953H6.5476L6.54695 6.01091V6.00953L6.46429 5.75L6.39079 6.00953H6.12329L6.34588 6.16237H6.34713L6.34454 6.16369L6.25476 6.42066L6.46951 6.25991L6.47017 6.25863L6.47085 6.25991L6.68688 6.42066L6.59645 6.16369L6.59382 6.16237Z" fill="white"/>
<path d="M5.13459 1.97612L5.05197 1.71655L4.97837 1.97612H4.71094L4.93347 2.12765H4.93412L4.93222 2.12902L4.84109 2.38727L5.05719 2.22521L5.05784 2.22383L5.05844 2.22521L5.27456 2.38727L5.18406 2.12902L5.18081 2.12765H5.18216L5.40475 1.97612H5.13528H5.13459Z" fill="white"/>
<path d="M5.13394 3.32148L5.13459 3.32011L5.05197 3.06055L4.97837 3.32011H4.71094L4.93347 3.47302H4.93412L4.93222 3.4743L4.84109 3.73127L5.05719 3.57048L5.05784 3.56917L5.05844 3.57048L5.27456 3.73127L5.18406 3.4743L5.18081 3.47302H5.18216L5.40475 3.32011H5.13528L5.13394 3.32148Z" fill="white"/>
<path d="M5.13459 4.66554L5.05197 4.40601L4.97837 4.66554H4.71094L4.93347 4.8171H4.93412L4.93222 4.81976L4.84109 5.07663L5.05719 4.9146L5.05784 4.91326L5.05844 4.9146L5.27456 5.07663L5.18406 4.81976L5.18081 4.8171H5.18216L5.40475 4.66554H5.13528H5.13459Z" fill="white"/>
<path d="M5.40475 6.00953H5.13528L5.13394 6.01091L5.13459 6.00953L5.05197 5.75L4.97837 6.00953H4.71094L4.93347 6.16237H4.93412L4.93222 6.16369L4.84109 6.42066L5.05719 6.25991L5.05784 6.25863L5.05844 6.25991L5.27456 6.42066L5.18406 6.16369L5.18081 6.16237H5.18216L5.40475 6.00953Z" fill="white"/>
<path d="M3.52189 3.47302L3.51864 3.4743L3.4288 3.73127L3.64486 3.57048V3.56917L3.64552 3.57048L3.86227 3.73127L3.77114 3.4743L3.76858 3.47302H3.76924L3.99243 3.32011H3.72236L3.72102 3.32148L3.72171 3.32011L3.63839 3.06055L3.56546 3.32011H3.29736L3.51989 3.47302H3.52189Z" fill="white"/>
<path d="M3.52189 4.8171L3.51864 4.81976L3.4288 5.07663L3.64486 4.9146V4.91326L3.64552 4.9146L3.86227 5.07663L3.77114 4.81976L3.76858 4.8171H3.76924L3.99243 4.66554H3.72236H3.72171L3.63839 4.40601L3.56546 4.66554H3.29736L3.51989 4.8171H3.52189Z" fill="white"/>
<path d="M3.76858 6.16237H3.76924L3.99243 6.00953H3.72236L3.72102 6.01091L3.72171 6.00953L3.63839 5.75L3.56546 6.00953H3.29736L3.51989 6.16237H3.52189L3.51864 6.16369L3.4288 6.42066L3.64486 6.25991V6.25863L3.64552 6.25991L3.86227 6.42066L3.77114 6.16369L3.76858 6.16237Z" fill="white"/>
<path d="M2.13232 4.8171L2.1297 4.81976L2.03929 5.07663L2.25601 4.9146L2.4721 5.07663L2.38223 4.81976L2.37963 4.8171H2.38032L2.60292 4.66554H2.33282L2.24951 4.40601L2.17657 4.66554H1.90845L2.13104 4.8171H2.13232Z" fill="white"/>
<path d="M2.37963 6.16237H2.38032L2.60292 6.00953H2.33282L2.24951 5.75L2.17657 6.00953H1.90845L2.13104 6.16237H2.13232L2.1297 6.16369L2.03929 6.42066L2.25601 6.25991L2.4721 6.42066L2.38223 6.16369L2.37963 6.16237Z" fill="white"/>
<path d="M7.23186 2.64829V2.64701L7.1492 2.38745L7.07629 2.64701H6.80811L7.0307 2.79855H7.0327L7.02942 2.8012L6.93957 3.05811L7.15567 2.89736L7.37173 3.05811L7.28195 2.8012L7.27936 2.79855H7.27998L7.5032 2.64701H7.23251L7.23186 2.64829Z" fill="white"/>
<path d="M7.23186 3.99226L7.1492 3.73267L7.07629 3.99226H6.80811L7.0307 4.14379H7.0327L7.02942 4.14642L6.93957 4.40338L7.15567 4.24129L7.37173 4.40338L7.28195 4.14642L7.27936 4.14379H7.27998L7.5032 3.99226H7.23251H7.23186Z" fill="white"/>
<path d="M7.23186 5.33897V5.3376L7.1492 5.07935L7.07629 5.33897L6.80811 5.3376L7.0307 5.49044H7.0327L7.02942 5.49181L6.93957 5.75006L7.15567 5.58794L7.37173 5.75006L7.28195 5.49181L7.27936 5.49044H7.27998L7.5032 5.3376L7.23251 5.33897H7.23186Z" fill="white"/>
<path d="M7.5032 6.68565H7.23251L7.23186 6.68693V6.68565L7.1492 6.42603L7.07629 6.68565H6.80811L7.0307 6.83715H7.0327L7.02942 6.83846L6.93957 7.09678L7.15567 6.93465L7.37173 7.09678L7.28195 6.83846L7.27936 6.83715H7.27998L7.5032 6.68565Z" fill="white"/>
<path d="M7.0327 1.45974L7.02942 1.46233L6.93957 1.7193L7.15567 1.55855L7.37173 1.7193L7.28195 1.46233L7.27936 1.45974H7.27998L7.5032 1.30821H7.23251L7.23186 1.30949V1.30821L7.1492 1.04858L7.07629 1.30821H6.80811L7.0307 1.45974H7.0327Z" fill="white"/>
<path d="M5.85066 2.64829V2.64701L5.76803 2.38745L5.6951 2.64701H5.427L5.6496 2.79855H5.65085L5.64825 2.8012L5.55841 3.05811L5.77453 2.89736L5.99063 3.05811L5.90013 2.8012L5.89816 2.79855H5.89885L6.12144 2.64701H5.85135L5.85066 2.64829Z" fill="white"/>
<path d="M5.85066 3.99226L5.76803 3.73267L5.6951 3.99226H5.427L5.6496 4.14379H5.65085L5.64825 4.14642L5.55841 4.40338L5.77453 4.24129L5.99063 4.40338L5.90013 4.14642L5.89816 4.14379H5.89885L6.12144 3.99226H5.85135H5.85066Z" fill="white"/>
<path d="M5.85066 5.33897V5.3376L5.76803 5.07935L5.6951 5.33897L5.427 5.3376L5.6496 5.49044H5.65085L5.64825 5.49181L5.55841 5.75006L5.77453 5.58794L5.99063 5.75006L5.90013 5.49181L5.89816 5.49044H5.89885L6.12144 5.3376L5.85135 5.33897H5.85066Z" fill="white"/>
<path d="M6.12144 6.68565H5.85135L5.85066 6.68693V6.68565L5.76803 6.42603L5.6951 6.68565H5.427L5.6496 6.83715H5.65085L5.64825 6.83846L5.55841 7.09678L5.77453 6.93465L5.99063 7.09678L5.90013 6.83846L5.89816 6.83715H5.89885L6.12144 6.68565Z" fill="white"/>
<path d="M5.89997 1.46249L5.99028 1.71914L5.77444 1.55833L5.55859 1.71914L5.64828 1.46249L5.65075 1.45939H5.6495L5.60187 1.42661C5.71937 1.38396 5.83812 1.34436 5.95872 1.30786H6.12137L5.89872 1.45939H5.89809L5.89997 1.46249Z" fill="white"/>
<path d="M4.41421 2.64829V2.64701L4.33224 2.38745L4.25805 2.64701H3.99121L4.21315 2.79855H4.2144L4.21246 2.8012L4.12202 3.05811L4.33743 2.89736V2.89601L4.33812 2.89736L4.55484 3.05811L4.46371 2.8012L4.46112 2.79855H4.46237L4.68502 2.64701H4.41555L4.41421 2.64829Z" fill="white"/>
<path d="M4.41421 3.99226L4.33224 3.73267L4.25805 3.99226H3.99121L4.21315 4.14379H4.2144L4.21246 4.14642L4.12202 4.40338L4.33743 4.24129H4.33812L4.55484 4.40338L4.46371 4.14642L4.46112 4.14379H4.46237L4.68502 3.99226H4.41555H4.41421Z" fill="white"/>
<path d="M4.41421 5.33897V5.3376L4.33224 5.07935L4.25805 5.33897L3.99121 5.3376L4.21315 5.49044H4.2144L4.21246 5.49181L4.12202 5.75006L4.33743 5.58794V5.58669L4.33812 5.58794L4.55484 5.75006L4.46371 5.49181L4.46112 5.49044H4.46237L4.68502 5.3376L4.41555 5.33897H4.41421Z" fill="white"/>
<path d="M4.68502 6.68565H4.41555L4.41421 6.68693V6.68565L4.33224 6.42603L4.25805 6.68565H3.99121L4.21315 6.83715H4.2144L4.21246 6.83846L4.12202 7.09678L4.33743 6.93465V6.93337L4.33812 6.93465L4.55484 7.09678L4.46371 6.83846L4.46112 6.83715H4.46237L4.68502 6.68565Z" fill="white"/>
<path d="M2.92639 3.73267L2.85348 3.99226H2.58667L2.80798 4.14379H2.80923L2.80729 4.14642L2.71686 4.40338L2.93295 4.24129H2.9342L3.14898 4.40338L3.05917 4.14642L3.05654 4.14379H3.0572L3.28048 3.99226H3.0097L2.92639 3.73267Z" fill="white"/>
<path d="M3.0097 5.3376L2.92639 5.07935L2.85348 5.33897L2.58667 5.3376L2.80798 5.49044H2.80923L2.80729 5.49181L2.71686 5.75006L2.93295 5.58794V5.58669L2.9342 5.58794L3.14898 5.75006L3.05917 5.49181L3.05654 5.49044H3.0572L3.28048 5.3376L3.0097 5.33897V5.3376Z" fill="white"/>
<path d="M3.28048 6.68565H3.0097L2.92639 6.42603L2.85348 6.68565H2.58667L2.80798 6.83715H2.80923L2.80729 6.83846L2.71686 7.09678L2.93295 6.93465V6.93337L2.9342 6.93465L3.14898 7.09678L3.05917 6.83846L3.05654 6.83715H3.0572L3.28048 6.68565Z" fill="white"/>
<path d="M1.68397 5.49191L1.77426 5.74982L1.55841 5.58779L1.55779 5.58654L1.55716 5.58779L1.38647 5.71582C1.44707 5.53954 1.5151 5.36638 1.58932 5.19629L1.63447 5.33791V5.33916H1.6351L1.90538 5.33791L1.68213 5.49066L1.68397 5.49191Z" fill="white"/>
<path d="M1.90519 6.68565H1.63507L1.63441 6.68693V6.68565L1.55176 6.42603L1.4776 6.68565H1.21069L1.43335 6.83715H1.4346L1.43201 6.83846L1.34157 7.09678L1.55694 6.93465L1.5576 6.93337L1.55829 6.93465L1.77435 7.09678L1.68391 6.83846L1.68132 6.83715H1.68191L1.90519 6.68565Z" fill="white"/>
</svg>
