<svg width="20" height="20" viewBox="0 0 20 20" fill="none" xmlns="http://www.w3.org/2000/svg">
<path d="M5.83805 9.27086C6.29829 9.27086 6.67139 8.89777 6.67139 8.43753L6.67139 4.6875L7.15684 4.68752C7.3032 4.68762 7.48291 4.68775 7.62994 4.66936L7.63273 4.66901C7.7381 4.65587 8.21814 4.59601 8.44677 4.12468C8.67591 3.65232 8.4243 3.23554 8.36986 3.14537L8.08724 2.75496C7.84171 2.44177 7.50363 2.01306 7.1866 1.68722C7.02841 1.52463 6.84736 1.35693 6.65494 1.22456C6.48389 1.10689 6.19206 0.9375 5.83317 0.9375C5.47428 0.9375 5.18245 1.10689 5.0114 1.22456C4.81898 1.35693 4.63793 1.52463 4.47974 1.68722C4.16271 2.01306 3.82463 2.44177 3.5791 2.75496L3.29648 3.14537C3.24205 3.23554 2.99044 3.65232 3.21957 4.12468C3.4482 4.59601 3.92824 4.65587 4.03361 4.66901L4.0364 4.66936C4.18343 4.68775 4.36314 4.68762 4.5095 4.68752L5.00472 4.6875L5.00472 8.43753C5.00472 8.89777 5.37782 9.27086 5.83805 9.27086Z" fill="#B6B6B6"/>
<path d="M10.6268 1.14587C11.9111 1.14585 12.9842 1.14586 13.8027 1.23149C14.6439 1.31948 15.3616 1.50539 15.9822 1.94427C16.3075 2.17431 16.598 2.44829 16.844 2.7587C17.3188 3.35792 17.5215 4.05616 17.6166 4.86732C17.7082 5.64843 17.7082 6.62564 17.7082 7.83238V9.98529C17.7082 11.1672 17.7082 12.0944 17.6588 12.845C17.6086 13.609 17.5049 14.2463 17.2706 14.8396C16.5678 16.6196 15.0897 18.0053 13.2397 18.6571C12.0876 19.063 10.6821 19.0628 8.31574 19.0625C7.0199 19.0629 5.79317 19.0633 5.0775 18.8111C3.93037 18.4069 3.00668 17.545 2.56601 16.429C2.41328 16.0422 2.35027 15.6374 2.32044 15.1836C2.2915 14.7431 2.2915 14.2035 2.2915 13.5375V10.0823C2.2915 9.63414 2.65478 9.27086 3.10292 9.27086C3.55105 9.27086 3.91433 9.63414 3.91433 10.0823V13.5098C3.91433 14.2101 3.91474 14.6958 3.93975 15.0764C3.96428 15.4497 4.00998 15.665 4.07468 15.8289C4.33309 16.4834 4.88784 17.0181 5.61503 17.2743C6.0345 17.4221 6.59044 17.4337 8.11887 17.4337C8.36725 17.4337 8.66456 17.4327 8.94636 17.4315C9.22816 17.4302 9.68932 17.4281 10.0744 17.204C10.3284 17.0563 10.5124 16.888 10.6179 16.7042C10.7991 16.3889 10.9027 16.0496 10.9027 15.6599L10.8723 14.7929C10.8657 14.4761 10.8757 14.1065 10.9713 13.7497C11.1576 13.0548 11.7004 12.5119 12.3954 12.3257C12.7522 12.2301 13.1218 12.2201 13.4385 12.2267L14.3055 12.2571C14.6777 12.2571 15.0279 12.1626 15.3333 11.9963C15.5228 11.8932 15.7074 11.6906 15.8515 11.4481C16.0853 11.0546 16.0855 10.5225 16.0855 10.3L16.0854 7.88314C16.0854 6.6136 16.0841 5.73249 16.005 5.05769C15.9281 4.40203 15.7869 4.04137 15.5739 3.77263C15.4258 3.58566 15.2488 3.41809 15.0476 3.2758C14.7494 3.06493 14.3461 2.92596 13.6345 2.85152C12.91 2.77573 11.9674 2.77469 10.6268 2.77469C10.1771 2.77469 9.81244 2.41007 9.81244 1.96029C9.81244 1.5105 10.1771 1.14587 10.6268 1.14587Z" fill="#B6B6B6"/>
</svg>
