<svg width="40" height="40" viewBox="0 0 40 40" fill="none" xmlns="http://www.w3.org/2000/svg">
<path fill-rule="evenodd" clip-rule="evenodd" d="M6.25 15V11.6667C6.24934 10.9552 6.389 10.2505 6.66098 9.59302C6.93296 8.93554 7.33192 8.33815 7.83504 7.83504C8.33815 7.33192 8.93554 6.93296 9.59302 6.66098C10.2505 6.389 10.9552 6.24934 11.6667 6.25H15C15.3315 6.25 15.6495 6.1183 15.8839 5.88388C16.1183 5.64946 16.25 5.33152 16.25 5C16.25 4.66848 16.1183 4.35054 15.8839 4.11612C15.6495 3.8817 15.3315 3.75 15 3.75H11.6667C9.56704 3.75 7.5534 4.58407 6.06874 6.06874C4.58407 7.5534 3.75 9.56704 3.75 11.6667V15C3.75 15.3315 3.8817 15.6495 4.11612 15.8839C4.35054 16.1183 4.66848 16.25 5 16.25C5.33152 16.25 5.64946 16.1183 5.88388 15.8839C6.1183 15.6495 6.25 15.3315 6.25 15ZM25 6.25H28.3333C29.0448 6.24934 29.7495 6.389 30.407 6.66098C31.0645 6.93296 31.6618 7.33192 32.165 7.83504C32.6681 8.33815 33.067 8.93554 33.339 9.59302C33.611 10.2505 33.7507 10.9552 33.75 11.6667V15C33.75 15.3315 33.8817 15.6495 34.1161 15.8839C34.3505 16.1183 34.6685 16.25 35 16.25C35.3315 16.25 35.6495 16.1183 35.8839 15.8839C36.1183 15.6495 36.25 15.3315 36.25 15V11.6667C36.25 9.56704 35.4159 7.5534 33.9313 6.06874C32.4466 4.58407 30.433 3.75 28.3333 3.75H25C24.6685 3.75 24.3505 3.8817 24.1161 4.11612C23.8817 4.35054 23.75 4.66848 23.75 5C23.75 5.33152 23.8817 5.64946 24.1161 5.88388C24.3505 6.1183 24.6685 6.25 25 6.25ZM3.75 25V28.3333C3.75 30.433 4.58407 32.4466 6.06874 33.9313C7.5534 35.4159 9.56704 36.25 11.6667 36.25H15C15.3315 36.25 15.6495 36.1183 15.8839 35.8839C16.1183 35.6495 16.25 35.3315 16.25 35C16.25 34.6685 16.1183 34.3505 15.8839 34.1161C15.6495 33.8817 15.3315 33.75 15 33.75H11.6667C10.9552 33.7507 10.2505 33.611 9.59302 33.339C8.93554 33.067 8.33815 32.6681 7.83504 32.165C7.33192 31.6618 6.93296 31.0645 6.66098 30.407C6.389 29.7495 6.24934 29.0448 6.25 28.3333V25C6.25 24.6685 6.1183 24.3505 5.88388 24.1161C5.64946 23.8817 5.33152 23.75 5 23.75C4.66848 23.75 4.35054 23.8817 4.11612 24.1161C3.8817 24.3505 3.75 24.6685 3.75 25ZM25 36.25H28.3333C30.433 36.25 32.4466 35.4159 33.9313 33.9313C35.4159 32.4466 36.25 30.433 36.25 28.3333V25C36.25 24.6685 36.1183 24.3505 35.8839 24.1161C35.6495 23.8817 35.3315 23.75 35 23.75C34.6685 23.75 34.3505 23.8817 34.1161 24.1161C33.8817 24.3505 33.75 24.6685 33.75 25V28.3333C33.7507 29.0448 33.611 29.7495 33.339 30.407C33.067 31.0645 32.6681 31.6618 32.165 32.165C31.6618 32.6681 31.0645 33.067 30.407 33.339C29.7495 33.611 29.0448 33.7507 28.3333 33.75H25C24.6685 33.75 24.3505 33.8817 24.1161 34.1161C23.8817 34.3505 23.75 34.6685 23.75 35C23.75 35.3315 23.8817 35.6495 24.1161 35.8839C24.3505 36.1183 24.6685 36.25 25 36.25ZM24.5833 14.1667V15.8333C24.5833 16.1649 24.715 16.4828 24.9494 16.7172C25.1839 16.9516 25.5018 17.0833 25.8333 17.0833C26.1649 17.0833 26.4828 16.9516 26.7172 16.7172C26.9516 16.4828 27.0833 16.1649 27.0833 15.8333V14.1667C27.0833 13.8351 26.9516 13.5172 26.7172 13.2828C26.4828 13.0484 26.1649 12.9167 25.8333 12.9167C25.5018 12.9167 25.1839 13.0484 24.9494 13.2828C24.715 13.5172 24.5833 13.8351 24.5833 14.1667ZM12.9167 14.1667V15.8333C12.9167 16.1649 13.0484 16.4828 13.2828 16.7172C13.5172 16.9516 13.8351 17.0833 14.1667 17.0833C14.4982 17.0833 14.8161 16.9516 15.0505 16.7172C15.285 16.4828 15.4167 16.1649 15.4167 15.8333V14.1667C15.4167 13.8351 15.285 13.5172 15.0505 13.2828C14.8161 13.0484 14.4982 12.9167 14.1667 12.9167C13.8351 12.9167 13.5172 13.0484 13.2828 13.2828C13.0484 13.5172 12.9167 13.8351 12.9167 14.1667ZM19.5833 20.8933V16.6667C19.5833 16.3351 19.715 16.0172 19.9494 15.7828C20.1839 15.5484 20.5018 15.4167 20.8333 15.4167C21.1649 15.4167 21.4828 15.5484 21.7172 15.7828C21.9516 16.0172 22.0833 16.3351 22.0833 16.6667V21.6667C22.0829 21.8988 22.0177 22.1263 21.8953 22.3235C21.7728 22.5207 21.5979 22.6799 21.39 22.7833L19.7233 23.6167C19.5759 23.697 19.4138 23.7467 19.2467 23.763C19.0796 23.7793 18.911 23.7618 18.7508 23.7115C18.5907 23.6612 18.4423 23.5791 18.3145 23.4702C18.1868 23.3613 18.0823 23.2278 18.0072 23.0776C17.9322 22.9274 17.8882 22.7637 17.8778 22.5961C17.8674 22.4286 17.8909 22.2607 17.9469 22.1024C18.0028 21.9441 18.0901 21.7987 18.2034 21.6749C18.3168 21.5511 18.4539 21.4513 18.6067 21.3817L19.5817 20.8933H19.5833ZM24.95 24.95C25.187 24.7292 25.5004 24.609 25.8242 24.6147C26.148 24.6204 26.457 24.7516 26.686 24.9806C26.9151 25.2097 27.0462 25.5186 27.052 25.8425C27.0577 26.1663 26.9375 26.4797 26.7167 26.7167L26.7133 26.72C24.9324 28.5009 22.5169 29.5014 19.9983 29.5014C17.4797 29.5014 15.0643 28.5009 13.2833 26.72V26.7167C13.1641 26.6012 13.0691 26.4631 13.0038 26.3105C12.9385 26.1579 12.9043 25.9939 12.9031 25.8279C12.9019 25.6619 12.9337 25.4974 12.9968 25.3438C13.0599 25.1903 13.1529 25.0509 13.2704 24.9337C13.3879 24.8165 13.5276 24.7239 13.6813 24.6613C13.835 24.5986 13.9997 24.5672 14.1656 24.5689C14.3316 24.5706 14.4956 24.6053 14.648 24.671C14.8004 24.7367 14.9382 24.8321 15.0533 24.9517C16.3653 26.2628 18.1443 26.9994 19.9992 26.9994C21.854 26.9994 23.633 26.2628 24.945 24.9517H24.9483L24.95 24.95Z" fill="#1C1C1C"/>
</svg>
