<svg width="32" height="32" viewBox="0 0 32 32" fill="none" xmlns="http://www.w3.org/2000/svg">
<path d="M26.3412 14.6667C27.0776 14.6667 27.6745 14.0698 27.6745 13.3334V7.33334L28.4512 7.33337C28.6854 7.33354 28.973 7.33374 29.2082 7.30432L29.2127 7.30376C29.3813 7.28273 30.1493 7.18695 30.5151 6.43283C30.8818 5.67706 30.4792 5.01021 30.3921 4.86594L29.9399 4.24127C29.547 3.74017 29.0061 3.05423 28.4989 2.53289C28.2458 2.27275 27.9561 2.00443 27.6482 1.79263C27.3745 1.60436 26.9076 1.33334 26.3334 1.33334C25.7592 1.33334 25.2922 1.60436 25.0185 1.79263C24.7107 2.00443 24.421 2.27275 24.1679 2.53289C23.6606 3.05423 23.1197 3.74018 22.7269 4.24128L22.2747 4.86593C22.1876 5.01021 21.785 5.67706 22.1516 6.43282C22.5174 7.18695 23.2855 7.28273 23.4541 7.30376L23.4585 7.30432C23.6938 7.33374 23.9813 7.33354 24.2155 7.33337L25.0079 7.33334V13.3334C25.0079 14.0698 25.6048 14.6667 26.3412 14.6667Z" fill="white"/>
<path d="M16.5674 2.66668L16.6667 2.66668C17.4031 2.66668 18 3.26363 18 4.00001C18 4.73639 17.4031 5.33334 16.6667 5.33334C13.6435 5.33334 10.1768 5.33618 8.56165 5.55333C6.98485 5.76533 6.10298 6.15934 5.46451 6.79781C4.82604 7.43628 4.43202 8.31815 4.22003 9.89495C4.00287 11.5101 4.00004 13.6434 4.00004 16.6667C4.00004 16.9754 4.00007 17.2749 4.00036 17.5655C4.36226 17.5444 4.72497 17.5341 5.08792 17.5348C8.83861 17.4582 12.5049 18.6273 15.4336 20.8465C17.8579 22.6834 19.6494 25.144 20.595 27.918C21.1458 27.8861 21.6464 27.8417 22.1051 27.78C22.2884 27.7554 22.4622 27.7283 22.6274 27.6986C21.9558 25.5346 20.8393 23.5361 19.3598 21.8088C19.054 21.4518 19.1737 20.8912 19.6213 20.7475C20.7643 20.3806 21.9347 20.1936 23.1187 20.198C24.3123 20.197 25.4952 20.3929 26.6514 20.7756C26.6662 20.0797 26.6667 19.2212 26.6667 18V17.3333C26.6667 16.597 27.2637 16 28 16C28.7364 16 29.3334 16.597 29.3334 17.3333V18.0992C29.3334 21.0002 29.3334 21.9803 29.0896 23.7937C28.8379 25.6662 28.3044 27.2046 27.0879 28.4212C25.8713 29.6377 24.3329 30.1712 22.4604 30.4229C20.6469 30.6667 18.3339 30.6667 15.4326 30.6667H15.2341C12.3328 30.6667 10.0198 30.6667 8.20632 30.4229C6.33382 30.1712 4.79541 29.6377 3.57889 28.4212C2.36237 27.2046 1.82889 25.6662 1.57714 23.7937C1.33332 21.9802 1.33334 19.6673 1.33337 16.766V16.5674C1.33334 13.6661 1.33332 11.3531 1.57714 9.53963C1.82889 7.66712 2.36237 6.12871 3.57889 4.91219C4.79541 3.69567 6.33382 3.16219 8.20632 2.91044C10.0198 2.66662 13.6661 2.66665 16.5674 2.66668Z" fill="white"/>
</svg>
