<svg width="85" height="68" viewBox="0 0 85 68" fill="none" xmlns="http://www.w3.org/2000/svg">
<path d="M42.7271 33.049H43.1106C43.7286 33.049 44.2291 32.548 44.2291 31.9305V26.6564C44.2291 26.0388 43.7286 25.5378 43.1106 25.5378H15.8395C15.2219 25.5378 14.7209 26.0388 14.7209 26.6564V31.9305C14.7209 32.548 15.2215 33.049 15.8395 33.049H42.7271Z" fill="#DDA2A5"/>
<path d="M43.0102 23.8377V2.41477C43.0102 1.47599 42.2492 0.7146 41.31 0.7146H17.6406C16.7018 0.7146 15.9404 1.47552 15.9404 2.41477V23.8377C15.9404 24.7765 16.7014 25.5379 17.6406 25.5379H41.31C42.2488 25.5379 43.0102 24.7765 43.0102 23.8377Z" fill="#A3090F"/>
<path d="M84.6484 45.8778C84.1304 42.3774 81.7552 33.1741 71.0899 32.7425C70.6135 32.7232 70.1931 32.4236 70.0294 31.9759L62.4018 11.1214C62.3254 10.9129 62.314 10.7016 62.3518 10.5039L63.5005 9.55005C64.1675 9.55005 64.6992 8.99339 64.669 8.32728L64.4397 3.26309C64.4114 2.63803 63.8968 2.146 63.2712 2.146H58.1098C57.6886 2.146 57.2994 2.3729 57.0918 2.73945L54.3562 7.57249C54.2595 7.74327 54.2076 7.93573 54.2043 8.13198L53.4179 43.8064C53.4084 44.4456 52.8876 44.9593 52.2484 44.9593H43.8976C43.2513 44.9593 42.7276 44.4357 42.7276 43.7894V32.9307C42.7276 32.2844 42.204 31.7608 41.5577 31.7608H22.11C22.0449 31.7608 21.9807 31.766 21.9165 31.7768C20.7792 31.9726 10.4545 34.1521 9.91485 48.8932C9.89079 49.5565 10.421 50.1094 11.0848 50.1094H12.3269C12.3085 49.8093 12.2962 49.5079 12.2962 49.2031C12.2962 41.1589 18.8176 34.638 26.8614 34.638C34.9056 34.638 41.4265 41.1589 41.4265 49.2031C41.4265 49.5079 41.4143 49.8093 41.3954 50.1094H53.5009C53.4825 49.8093 53.4702 49.5079 53.4702 49.2031C53.4702 41.1589 59.9912 34.638 68.0354 34.638C75.4059 34.638 81.4938 40.114 82.4623 47.2185C82.4836 47.2176 82.5038 47.2124 82.5255 47.2124H83.4902C84.2021 47.2128 84.7526 46.5821 84.6484 45.8778Z" fill="#A3090F"/>
<path d="M26.8615 34.6384C18.8173 34.6384 12.2964 41.1594 12.2964 49.2036C12.2964 49.5083 12.3087 49.8098 12.3271 50.1098H41.396C41.4144 49.8098 41.4272 49.5083 41.4272 49.2036C41.4267 41.1598 34.9058 34.6384 26.8615 34.6384Z" fill="#A3090F"/>
<path opacity="0.24" d="M26.8615 34.6384C18.8173 34.6384 12.2964 41.1594 12.2964 49.2036C12.2964 49.5083 12.3087 49.8098 12.3271 50.1098H41.396C41.4144 49.8098 41.4272 49.5083 41.4272 49.2036C41.4267 41.1598 34.9058 34.6384 26.8615 34.6384Z" fill="#A3090F"/>
<path d="M68.0354 34.6384C59.9912 34.6384 53.4702 41.1594 53.4702 49.2036C53.4702 49.5083 53.4825 49.8098 53.5009 50.1098H80.1857C80.8319 50.1098 81.3556 49.5862 81.3556 48.9399V48.3823C81.3556 47.7577 81.8462 47.252 82.4623 47.219C81.4943 40.1145 75.4059 34.6384 68.0354 34.6384Z" fill="#A3090F"/>
<path opacity="0.24" d="M68.0354 34.6384C59.9912 34.6384 53.4702 41.1594 53.4702 49.2036C53.4702 49.5083 53.4825 49.8098 53.5009 50.1098H80.1857C80.8319 50.1098 81.3556 49.5862 81.3556 48.9399V48.3823C81.3556 47.7577 81.8462 47.252 82.4623 47.219C81.4943 40.1145 75.4059 34.6384 68.0354 34.6384Z" fill="#A3090F"/>
<path d="M27.5561 35.9478C27.4542 35.9256 27.3485 35.9133 27.24 35.9133H26.6485H16.8895C16.0667 35.9133 15.3997 36.5804 15.3997 37.4031C15.3997 38.1136 15.8978 38.707 16.5635 38.8556H17.9952C18.0934 38.8556 18.1891 38.8655 18.282 38.8839C18.2953 38.8863 18.308 38.8896 18.3207 38.8924C18.9864 39.041 19.4845 39.6345 19.4845 40.3449C19.4845 40.9851 19.0798 41.5295 18.5127 41.7403C18.3514 41.8003 18.1773 41.8347 17.9952 41.8347H15.5978H9.15754C8.5905 42.0451 8.18527 42.5895 8.18527 43.2301C8.18527 43.8623 8.57965 44.401 9.13537 44.6175H13.4344C13.625 44.6175 13.8066 44.6548 13.9741 44.7199H14.1481C14.1401 44.7425 14.133 44.7656 14.125 44.7883C14.5996 45.0374 14.9242 45.5341 14.9242 46.1073C14.9242 46.9163 14.2783 47.5735 13.474 47.5947C13.4735 47.5975 13.4735 47.6004 13.4731 47.6032C13.45 47.6023 13.4268 47.5999 13.4033 47.5999H4.16458C3.34186 47.5999 2.6748 48.2669 2.6748 49.0897C2.6748 49.9124 3.34186 50.5794 4.16458 50.5794H10.4676H13.4033C13.4184 50.5794 13.4334 50.5776 13.4485 50.5771C13.4485 50.578 13.449 50.5785 13.449 50.5794H14.9723C15.795 50.5794 16.4621 51.2465 16.4621 52.0692C16.4621 52.8919 15.795 53.559 14.9723 53.559H14.1165H13.3896C12.5669 53.559 11.9003 54.226 11.9003 55.0488C11.9003 55.8715 12.5673 56.5385 13.3896 56.5385H15.5978C15.5983 56.5395 15.5992 56.5404 15.5997 56.5414H20.0855C20.9083 56.5414 21.5753 57.2084 21.5753 58.0311C21.5753 58.8355 20.9375 59.4888 20.1403 59.5181H18.3188H16.9668C16.9484 59.5181 16.9305 59.5204 16.9121 59.5209C16.1149 59.5497 15.477 60.2035 15.477 61.0079C15.477 61.8306 16.1441 62.4976 16.9664 62.4976H26.205C26.3216 62.4976 26.4338 62.483 26.5423 62.458C26.5777 62.4585 26.6121 62.4608 26.6475 62.4608C33.9775 62.4608 39.9196 56.5187 39.9196 49.1887C39.9206 42.1607 34.4625 36.4143 27.5561 35.9478Z" fill="#A3090F"/>
<path d="M10.8924 54.9475C10.8924 54.1248 10.2253 53.4578 9.4026 53.4578H2.53445C1.71173 53.4578 1.04468 54.1248 1.04468 54.9475C1.04468 55.7703 1.71173 56.4373 2.53445 56.4373H9.4026C10.2258 56.4373 10.8924 55.7703 10.8924 54.9475Z" fill="#A3090F"/>
<path d="M12.8052 59.5159H10.3054C9.48272 59.5159 8.81567 60.1829 8.81567 61.0057C8.81567 61.8284 9.48272 62.4954 10.3054 62.4954H12.8052C13.6279 62.4954 14.295 61.8284 14.295 61.0057C14.295 60.1829 13.6279 59.5159 12.8052 59.5159Z" fill="#A3090F"/>
<path d="M6.96293 38.8558H13.1546C13.8084 38.6982 14.2948 38.1114 14.2948 37.409C14.2948 36.5862 13.6278 35.9192 12.805 35.9192H7.31155C6.48882 35.9192 5.82178 36.5862 5.82178 37.409C5.82272 38.1114 6.30909 38.6982 6.96293 38.8558Z" fill="#A3090F"/>
<path d="M3.65697 44.7195H5.36422C5.55481 44.7195 5.73596 44.6823 5.90343 44.6172C6.45915 44.4011 6.85353 43.8619 6.85353 43.2298C6.85353 42.407 6.18648 41.74 5.36376 41.74H1.48978C0.667051 41.74 0 42.407 0 43.2298C0 44.0525 0.667051 44.7195 1.48978 44.7195H3.65697Z" fill="#A3090F"/>
<path d="M36.2581 58.6022C41.4485 53.4118 41.4485 44.9965 36.2581 39.8061C31.0677 34.6157 22.6524 34.6157 17.462 39.8061C12.2716 44.9965 12.2716 53.4118 17.462 58.6022C22.6524 63.7925 31.0677 63.7925 36.2581 58.6022Z" fill="#A3090F"/>
<path d="M26.8615 55.1273C30.1325 55.1273 32.7843 52.4756 32.7843 49.2045C32.7843 45.9335 30.1325 43.2817 26.8615 43.2817C23.5904 43.2817 20.9387 45.9335 20.9387 49.2045C20.9387 52.4756 23.5904 55.1273 26.8615 55.1273Z" fill="white" stroke="#A3090F" stroke-width="1.5625" stroke-miterlimit="10" stroke-linecap="round" stroke-linejoin="round"/>
<path d="M80.9707 52.2984C82.6781 45.1591 78.2747 37.9875 71.1354 36.2801C63.9961 34.5727 56.8245 38.9762 55.1171 46.1154C53.4097 53.2547 57.8132 60.4263 64.9524 62.1337C72.0917 63.8411 79.2633 59.4377 80.9707 52.2984Z" fill="#A3090F"/>
<path d="M68.0353 55.1268C71.3064 55.1268 73.9581 52.4751 73.9581 49.204C73.9581 45.933 71.3064 43.2812 68.0353 43.2812C64.7643 43.2812 62.1125 45.933 62.1125 49.204C62.1125 52.4751 64.7643 55.1268 68.0353 55.1268Z" fill="white" stroke="white" stroke-width="1.5625" stroke-miterlimit="10" stroke-linecap="round" stroke-linejoin="round"/>
<path d="M66.9512 10.7045C64.1208 10.7045 61.8262 8.40989 61.8262 5.57941C61.8262 2.74894 64.1208 0.454834 66.9512 0.454834" fill="#A3090F"/>
<path d="M66.3573 1.42899C68.2749 1.83611 69.7185 3.54241 69.7185 5.57988C69.7185 7.61735 68.2754 9.32366 66.3573 9.73078V1.42899ZM65.4751 0.454834V10.7045C68.3056 10.7045 70.6001 8.40989 70.6001 5.57941C70.6001 2.74894 68.3056 0.454834 65.4751 0.454834Z" fill="#A3090F"/>
<path d="M67.514 0H64.7241V11.3738H67.514V0Z" fill="#A3090F"/>
<path d="M58.2857 6.86721H48.4818C47.8299 6.86721 47.3015 6.33885 47.3015 5.6869C47.3015 5.03495 47.8299 4.50659 48.4818 4.50659H58.2857C58.9376 4.50659 59.466 5.03495 59.466 5.6869C59.466 6.33885 58.9376 6.86721 58.2857 6.86721Z" fill="#A3090F"/>
<path d="M52.4919 7.40407H48.6962C47.748 7.40407 46.9795 6.6356 46.9795 5.68739C46.9795 4.73918 47.7484 3.9707 48.6962 3.9707H52.4919C53.4401 3.9707 54.2085 4.73918 54.2085 5.68739C54.2085 6.63513 53.4401 7.40407 52.4919 7.40407Z" fill="#A3090F"/>
<path d="M34.2641 6.76636H27.88L23.1328 14.7365L28.7702 13.2184L24.5287 21.8401L35.9284 10.0587H29.9019L34.2641 6.76636Z" stroke="white" stroke-width="1.5625" stroke-miterlimit="10" stroke-linecap="round" stroke-linejoin="round"/>
</svg>
